{
    "asset" : {
        "generator" : "Khronos glTF Blender I/O v1.6.16",
        "version" : "2.0"
    },
    "scene" : 0,
    "scenes" : [
        {
            "name" : "Scene",
            "nodes" : [
                4
            ]
        }
    ],
    "nodes" : [
        {
            "name" : "Bone.002",
            "rotation" : [
                0.0009265621192753315,
                0.02885683812201023,
                0.02404586784541607,
                0.999293863773346
            ],
            "scale" : [
                0.9986610412597656,
                0.9986611604690552,
                0.9986608624458313
            ],
            "translation" : [
                4.656612873077393e-10,
                0.9744784832000732,
                9.313225746154785e-10
            ]
        },
        {
            "children" : [
                0
            ],
            "name" : "Bone.001",
            "rotation" : [
                -0.004993825685232878,
                -0.0012273635948076844,
                -0.001972444821149111,
                0.9999849200248718
            ],
            "scale" : [
                0.8527939319610596,
                0.8527938723564148,
                0.8527939319610596
            ],
            "translation" : [
                -4.440892098500626e-16,
                0.9999999403953552,
                0
            ]
        },
        {
            "children" : [
                1
            ],
            "name" : "Bone",
            "scale" : [
                1.0087380409240723,
                1.0087380409240723,
                1.0087380409240723
            ],
            "translation" : [
                5.003634395706058e-09,
                0,
                0
            ]
        },
        {
            "mesh" : 0,
            "name" : "Icosphere.001",
            "skin" : 0
        },
        {
            "children" : [
                3,
                2
            ],
            "name" : "Armature",
            "scale" : [
                0.730295717716217,
                0.730295717716217,
                0.730295717716217
            ],
            "translation" : [
                0.17971152067184448,
                0.11481574177742004,
                0
            ]
        }
    ],
    "animations" : [
        {
            "channels" : [
                {
                    "sampler" : 0,
                    "target" : {
                        "node" : 2,
                        "path" : "translation"
                    }
                },
                {
                    "sampler" : 1,
                    "target" : {
                        "node" : 2,
                        "path" : "rotation"
                    }
                },
                {
                    "sampler" : 2,
                    "target" : {
                        "node" : 2,
                        "path" : "scale"
                    }
                },
                {
                    "sampler" : 3,
                    "target" : {
                        "node" : 1,
                        "path" : "translation"
                    }
                },
                {
                    "sampler" : 4,
                    "target" : {
                        "node" : 1,
                        "path" : "rotation"
                    }
                },
                {
                    "sampler" : 5,
                    "target" : {
                        "node" : 1,
                        "path" : "scale"
                    }
                },
                {
                    "sampler" : 6,
                    "target" : {
                        "node" : 0,
                        "path" : "translation"
                    }
                },
                {
                    "sampler" : 7,
                    "target" : {
                        "node" : 0,
                        "path" : "rotation"
                    }
                },
                {
                    "sampler" : 8,
                    "target" : {
                        "node" : 0,
                        "path" : "scale"
                    }
                }
            ],
            "name" : "die",
            "samplers" : [
                {
                    "input" : 13,
                    "interpolation" : "LINEAR",
                    "output" : 14
                },
                {
                    "input" : 13,
                    "interpolation" : "LINEAR",
                    "output" : 15
                },
                {
                    "input" : 13,
                    "interpolation" : "LINEAR",
                    "output" : 16
                },
                {
                    "input" : 13,
                    "interpolation" : "LINEAR",
                    "output" : 17
                },
                {
                    "input" : 13,
                    "interpolation" : "LINEAR",
                    "output" : 18
                },
                {
                    "input" : 13,
                    "interpolation" : "LINEAR",
                    "output" : 19
                },
                {
                    "input" : 13,
                    "interpolation" : "LINEAR",
                    "output" : 20
                },
                {
                    "input" : 13,
                    "interpolation" : "LINEAR",
                    "output" : 21
                },
                {
                    "input" : 13,
                    "interpolation" : "LINEAR",
                    "output" : 22
                }
            ]
        },
        {
            "channels" : [
                {
                    "sampler" : 0,
                    "target" : {
                        "node" : 2,
                        "path" : "translation"
                    }
                },
                {
                    "sampler" : 1,
                    "target" : {
                        "node" : 2,
                        "path" : "rotation"
                    }
                },
                {
                    "sampler" : 2,
                    "target" : {
                        "node" : 2,
                        "path" : "scale"
                    }
                },
                {
                    "sampler" : 3,
                    "target" : {
                        "node" : 1,
                        "path" : "translation"
                    }
                },
                {
                    "sampler" : 4,
                    "target" : {
                        "node" : 1,
                        "path" : "rotation"
                    }
                },
                {
                    "sampler" : 5,
                    "target" : {
                        "node" : 1,
                        "path" : "scale"
                    }
                },
                {
                    "sampler" : 6,
                    "target" : {
                        "node" : 0,
                        "path" : "translation"
                    }
                },
                {
                    "sampler" : 7,
                    "target" : {
                        "node" : 0,
                        "path" : "rotation"
                    }
                },
                {
                    "sampler" : 8,
                    "target" : {
                        "node" : 0,
                        "path" : "scale"
                    }
                }
            ],
            "name" : "glufph",
            "samplers" : [
                {
                    "input" : 23,
                    "interpolation" : "LINEAR",
                    "output" : 24
                },
                {
                    "input" : 23,
                    "interpolation" : "LINEAR",
                    "output" : 25
                },
                {
                    "input" : 23,
                    "interpolation" : "LINEAR",
                    "output" : 26
                },
                {
                    "input" : 23,
                    "interpolation" : "LINEAR",
                    "output" : 27
                },
                {
                    "input" : 23,
                    "interpolation" : "LINEAR",
                    "output" : 28
                },
                {
                    "input" : 23,
                    "interpolation" : "LINEAR",
                    "output" : 29
                },
                {
                    "input" : 23,
                    "interpolation" : "LINEAR",
                    "output" : 30
                },
                {
                    "input" : 23,
                    "interpolation" : "LINEAR",
                    "output" : 31
                },
                {
                    "input" : 23,
                    "interpolation" : "LINEAR",
                    "output" : 32
                }
            ]
        }
    ],
    "materials" : [
        {
            "doubleSided" : true,
            "name" : "eye",
            "pbrMetallicRoughness" : {
                "baseColorTexture" : {
                    "index" : 0
                },
                "metallicFactor" : 0,
                "roughnessFactor" : 0.22727271914482117
            }
        },
        {
            "doubleSided" : true,
            "name" : "glob",
            "pbrMetallicRoughness" : {
                "baseColorFactor" : [
                    0.3929465115070343,
                    0.035166069865226746,
                    0,
                    1
                ],
                "metallicFactor" : 0,
                "roughnessFactor" : 0.27090907096862793
            }
        }
    ],
    "meshes" : [
        {
            "name" : "Icosphere.007",
            "primitives" : [
                {
                    "attributes" : {
                        "POSITION" : 0,
                        "NORMAL" : 1,
                        "TEXCOORD_0" : 2,
                        "JOINTS_0" : 3,
                        "WEIGHTS_0" : 4
                    },
                    "indices" : 5,
                    "material" : 0
                },
                {
                    "attributes" : {
                        "POSITION" : 6,
                        "NORMAL" : 7,
                        "TEXCOORD_0" : 8,
                        "JOINTS_0" : 9,
                        "WEIGHTS_0" : 10
                    },
                    "indices" : 11,
                    "material" : 1
                }
            ]
        }
    ],
    "textures" : [
        {
            "sampler" : 0,
            "source" : 0
        }
    ],
    "images" : [
        {
            "bufferView" : 6,
            "mimeType" : "image/jpeg",
            "name" : "eye_0024_c"
        }
    ],
    "skins" : [
        {
            "inverseBindMatrices" : 12,
            "joints" : [
                2,
                1,
                0
            ],
            "name" : "Armature"
        }
    ],
    "accessors" : [
        {
            "bufferView" : 0,
            "componentType" : 5126,
            "count" : 630,
            "max" : [
                1.9815212488174438,
                2.930172920227051,
                1.801672339439392
            ],
            "min" : [
                -1.5039108991622925,
                0.6110745072364807,
                -1.6910924911499023
            ],
            "type" : "VEC3"
        },
        {
            "bufferView" : 1,
            "componentType" : 5126,
            "count" : 630,
            "type" : "VEC3"
        },
        {
            "bufferView" : 2,
            "componentType" : 5126,
            "count" : 630,
            "type" : "VEC2"
        },
        {
            "bufferView" : 3,
            "componentType" : 5121,
            "count" : 630,
            "type" : "VEC4"
        },
        {
            "bufferView" : 4,
            "componentType" : 5126,
            "count" : 630,
            "type" : "VEC4"
        },
        {
            "bufferView" : 5,
            "componentType" : 5123,
            "count" : 648,
            "type" : "SCALAR"
        },
        {
            "bufferView" : 7,
            "componentType" : 5126,
            "count" : 7398,
            "max" : [
                2.148949384689331,
                2.945373296737671,
                1.9753050804138184
            ],
            "min" : [
                -1.83350670337677,
                -0.41407671570777893,
                -1.6435054540634155
            ],
            "type" : "VEC3"
        },
        {
            "bufferView" : 8,
            "componentType" : 5126,
            "count" : 7398,
            "type" : "VEC3"
        },
        {
            "bufferView" : 9,
            "componentType" : 5126,
            "count" : 7398,
            "type" : "VEC2"
        },
        {
            "bufferView" : 10,
            "componentType" : 5121,
            "count" : 7398,
            "type" : "VEC4"
        },
        {
            "bufferView" : 11,
            "componentType" : 5126,
            "count" : 7398,
            "type" : "VEC4"
        },
        {
            "bufferView" : 12,
            "componentType" : 5123,
            "count" : 7398,
            "type" : "SCALAR"
        },
        {
            "bufferView" : 13,
            "componentType" : 5126,
            "count" : 3,
            "type" : "MAT4"
        },
        {
            "bufferView" : 14,
            "componentType" : 5126,
            "count" : 41,
            "max" : [
                1.6666666666666667
            ],
            "min" : [
                0
            ],
            "type" : "SCALAR"
        },
        {
            "bufferView" : 15,
            "componentType" : 5126,
            "count" : 41,
            "type" : "VEC3"
        },
        {
            "bufferView" : 16,
            "componentType" : 5126,
            "count" : 41,
            "type" : "VEC4"
        },
        {
            "bufferView" : 17,
            "componentType" : 5126,
            "count" : 41,
            "type" : "VEC3"
        },
        {
            "bufferView" : 18,
            "componentType" : 5126,
            "count" : 41,
            "type" : "VEC3"
        },
        {
            "bufferView" : 19,
            "componentType" : 5126,
            "count" : 41,
            "type" : "VEC4"
        },
        {
            "bufferView" : 20,
            "componentType" : 5126,
            "count" : 41,
            "type" : "VEC3"
        },
        {
            "bufferView" : 21,
            "componentType" : 5126,
            "count" : 41,
            "type" : "VEC3"
        },
        {
            "bufferView" : 22,
            "componentType" : 5126,
            "count" : 41,
            "type" : "VEC4"
        },
        {
            "bufferView" : 23,
            "componentType" : 5126,
            "count" : 41,
            "type" : "VEC3"
        },
        {
            "bufferView" : 24,
            "componentType" : 5126,
            "count" : 42,
            "max" : [
                1.6666666666666667
            ],
            "min" : [
                -0.041666666666666664
            ],
            "type" : "SCALAR"
        },
        {
            "bufferView" : 25,
            "componentType" : 5126,
            "count" : 42,
            "type" : "VEC3"
        },
        {
            "bufferView" : 26,
            "componentType" : 5126,
            "count" : 42,
            "type" : "VEC4"
        },
        {
            "bufferView" : 27,
            "componentType" : 5126,
            "count" : 42,
            "type" : "VEC3"
        },
        {
            "bufferView" : 28,
            "componentType" : 5126,
            "count" : 42,
            "type" : "VEC3"
        },
        {
            "bufferView" : 29,
            "componentType" : 5126,
            "count" : 42,
            "type" : "VEC4"
        },
        {
            "bufferView" : 30,
            "componentType" : 5126,
            "count" : 42,
            "type" : "VEC3"
        },
        {
            "bufferView" : 31,
            "componentType" : 5126,
            "count" : 42,
            "type" : "VEC3"
        },
        {
            "bufferView" : 32,
            "componentType" : 5126,
            "count" : 42,
            "type" : "VEC4"
        },
        {
            "bufferView" : 33,
            "componentType" : 5126,
            "count" : 42,
            "type" : "VEC3"
        }
    ],
    "bufferViews" : [
        {
            "buffer" : 0,
            "byteLength" : 7560,
            "byteOffset" : 0
        },
        {
            "buffer" : 0,
            "byteLength" : 7560,
            "byteOffset" : 7560
        },
        {
            "buffer" : 0,
            "byteLength" : 5040,
            "byteOffset" : 15120
        },
        {
            "buffer" : 0,
            "byteLength" : 2520,
            "byteOffset" : 20160
        },
        {
            "buffer" : 0,
            "byteLength" : 10080,
            "byteOffset" : 22680
        },
        {
            "buffer" : 0,
            "byteLength" : 1296,
            "byteOffset" : 32760
        },
        {
            "buffer" : 0,
            "byteLength" : 13602,
            "byteOffset" : 34056
        },
        {
            "buffer" : 0,
            "byteLength" : 88776,
            "byteOffset" : 47660
        },
        {
            "buffer" : 0,
            "byteLength" : 88776,
            "byteOffset" : 136436
        },
        {
            "buffer" : 0,
            "byteLength" : 59184,
            "byteOffset" : 225212
        },
        {
            "buffer" : 0,
            "byteLength" : 29592,
            "byteOffset" : 284396
        },
        {
            "buffer" : 0,
            "byteLength" : 118368,
            "byteOffset" : 313988
        },
        {
            "buffer" : 0,
            "byteLength" : 14796,
            "byteOffset" : 432356
        },
        {
            "buffer" : 0,
            "byteLength" : 192,
            "byteOffset" : 447152
        },
        {
            "buffer" : 0,
            "byteLength" : 164,
            "byteOffset" : 447344
        },
        {
            "buffer" : 0,
            "byteLength" : 492,
            "byteOffset" : 447508
        },
        {
            "buffer" : 0,
            "byteLength" : 656,
            "byteOffset" : 448000
        },
        {
            "buffer" : 0,
            "byteLength" : 492,
            "byteOffset" : 448656
        },
        {
            "buffer" : 0,
            "byteLength" : 492,
            "byteOffset" : 449148
        },
        {
            "buffer" : 0,
            "byteLength" : 656,
            "byteOffset" : 449640
        },
        {
            "buffer" : 0,
            "byteLength" : 492,
            "byteOffset" : 450296
        },
        {
            "buffer" : 0,
            "byteLength" : 492,
            "byteOffset" : 450788
        },
        {
            "buffer" : 0,
            "byteLength" : 656,
            "byteOffset" : 451280
        },
        {
            "buffer" : 0,
            "byteLength" : 492,
            "byteOffset" : 451936
        },
        {
            "buffer" : 0,
            "byteLength" : 168,
            "byteOffset" : 452428
        },
        {
            "buffer" : 0,
            "byteLength" : 504,
            "byteOffset" : 452596
        },
        {
            "buffer" : 0,
            "byteLength" : 672,
            "byteOffset" : 453100
        },
        {
            "buffer" : 0,
            "byteLength" : 504,
            "byteOffset" : 453772
        },
        {
            "buffer" : 0,
            "byteLength" : 504,
            "byteOffset" : 454276
        },
        {
            "buffer" : 0,
            "byteLength" : 672,
            "byteOffset" : 454780
        },
        {
            "buffer" : 0,
            "byteLength" : 504,
            "byteOffset" : 455452
        },
        {
            "buffer" : 0,
            "byteLength" : 504,
            "byteOffset" : 455956
        },
        {
            "buffer" : 0,
            "byteLength" : 672,
            "byteOffset" : 456460
        },
        {
            "buffer" : 0,
            "byteLength" : 504,
            "byteOffset" : 457132
        }
    ],
    "samplers" : [
        {
            "magFilter" : 9729,
            "minFilter" : 9987
        }
    ],
    "buffers" : [
        {
            "byteLength" : 457636,
            "uri" : "data:application/octet-stream;base64,"
        }
    ]
}
