# Blender v2.93.4 OBJ File: 'pistol.blend'
# www.blender.org
mtllib rusty_pistol.mtl
o Cube_Cube.002
v -0.103959 -0.025503 0.028641
v -0.103959 0.126784 0.028641
v -0.103959 -0.025503 -0.028672
v -0.103959 0.126784 -0.028672
v 0.286277 -0.025503 0.028641
v 0.286277 0.126784 0.028641
v 0.286277 -0.025503 -0.028672
v 0.286277 0.126784 -0.028672
v -0.135503 -0.012621 -0.026193
v -0.135503 -0.012621 0.026162
v -0.234685 0.116333 0.026162
v -0.234685 0.116333 -0.026193
v -0.300867 -0.012621 -0.026193
v -0.300867 -0.012621 0.026162
v -0.301113 0.006427 0.026162
v -0.301113 0.006427 -0.026193
v -0.227808 -0.145877 -0.023398
v -0.227808 -0.145877 0.023374
v -0.348427 -0.146191 -0.023398
v -0.348427 -0.146191 0.023374
v -0.235449 -0.161911 -0.024339
v -0.235261 -0.161302 0.022425
v -0.341958 -0.181650 -0.023067
v -0.341771 -0.181040 0.023697
v -0.220064 -0.196250 -0.038753
v -0.219796 -0.195237 0.038167
v -0.322927 -0.201090 -0.024667
v -0.322634 -0.200452 0.026794
v -0.329127 -0.196203 -0.024843
v -0.328855 -0.195558 0.026619
v -0.214174 -0.181113 -0.039016
v -0.213937 -0.180093 0.037905
v 0.263165 0.059284 0.015064
v 0.263165 0.100934 0.015064
v 0.263165 0.059284 -0.015095
v 0.263165 0.100934 -0.015095
v 0.318247 0.059284 0.015064
v 0.318247 0.100934 0.015064
v 0.318247 0.059284 -0.015095
v 0.318247 0.100934 -0.015095
v -0.166587 -0.021296 -0.022773
v -0.288040 -0.021613 -0.022773
v -0.288040 -0.021613 0.022749
v -0.166587 -0.021296 0.022749
v 0.263165 0.080109 0.023152
v 0.263165 0.080109 -0.023183
v 0.318247 0.080109 -0.023183
v 0.318247 0.080109 0.023152
v 0.263165 0.053645 -0.000015
v 0.263165 0.106574 -0.000015
v 0.318247 0.053645 -0.000015
v 0.318247 0.106574 -0.000015
v 0.318247 0.080109 -0.000015
v 0.263165 0.080109 -0.000015
v -0.103959 0.045810 0.052163
v -0.103959 0.045810 -0.052193
v 0.286277 0.045810 -0.037378
v 0.286277 0.045810 0.037347
v -0.181948 0.047765 0.047648
v -0.181948 0.047765 -0.047679
v -0.300983 -0.003701 0.025922
v -0.300983 -0.003701 -0.025953
v 0.254131 -0.025503 -0.028672
v 0.254131 0.126784 -0.028672
v 0.254131 -0.025503 0.028641
v 0.254131 0.126784 0.028641
v 0.254131 0.045810 0.037347
v 0.254131 0.045810 -0.037378
v 0.074414 -0.025503 -0.028672
v 0.074414 0.126784 0.028641
v 0.074414 0.045810 0.044783
v 0.074414 0.126784 -0.028672
v 0.074414 -0.025503 0.028641
v 0.074414 0.045810 -0.044813
vt 0.110923 0.189880
vt 0.005943 0.189866
vt 0.022248 0.144405
vt 0.113999 0.080696
vt 0.577643 0.567405
vt 0.691842 0.567680
vt 0.691746 0.612718
vt 0.577641 0.612473
vt 0.809597 0.105821
vt 0.797404 0.219232
vt 0.717133 0.219232
vt 0.704940 0.105821
vt 0.358582 0.439026
vt 0.242768 0.440002
vt 0.240661 0.189805
vt 0.358513 0.189881
vt 0.949073 0.876311
vt 0.949073 0.921334
vt 0.868802 0.921334
vt 0.868802 0.876311
vt 0.993913 0.005943
vt 0.993913 0.255768
vt 0.913641 0.255768
vt 0.913641 0.005943
vt 0.856915 0.749440
vt 0.847734 0.859918
vt 0.672091 0.708954
vt 0.679768 0.699091
vt 0.254863 0.005943
vt 0.355437 0.080696
vt 0.205844 0.949939
vt 0.125573 0.949939
vt 0.129045 0.766263
vt 0.202372 0.766263
vt 0.824629 0.535289
vt 0.904901 0.535289
vt 0.901428 0.583010
vt 0.828102 0.583010
vt 0.339130 0.800007
vt 0.339466 0.814194
vt 0.266140 0.814194
vt 0.266475 0.800007
vt 0.660204 0.735083
vt 0.660204 0.859918
vt 0.491874 0.796551
vt 0.483056 0.785431
vt 0.339466 0.994057
vt 0.266140 0.994057
vt 0.039833 0.498615
vt 0.203394 0.451888
vt 0.168380 0.643126
vt 0.005943 0.689532
vt 0.428557 0.562435
vt 0.266139 0.515963
vt 0.288398 0.471534
vt 0.424414 0.538765
vt 0.919722 0.286131
vt 0.983475 0.285464
vt 0.986378 0.479344
vt 0.920875 0.480029
vt 0.463493 0.753687
vt 0.299952 0.706893
vt 0.731114 0.330728
vt 0.794864 0.331646
vt 0.792939 0.526053
vt 0.727439 0.525110
vt 0.916997 0.556959
vt 0.989079 0.556988
vt 0.988869 0.568045
vt 0.916787 0.568045
vt 0.986442 0.529827
vt 0.920941 0.529722
vt 0.164207 0.667684
vt 0.028164 0.734862
vt 0.791265 0.550025
vt 0.725763 0.549964
vt 0.113686 0.910569
vt 0.005943 0.910569
vt 0.022469 0.766418
vt 0.094551 0.766263
vt 0.051078 0.749681
vt 0.203394 0.690001
vt 0.200528 0.712572
vt 0.061090 0.754377
vt 0.704941 0.589966
vt 0.812684 0.589973
vt 0.812743 0.612718
vt 0.705000 0.612718
vt 0.463493 0.515797
vt 0.311469 0.456529
vt 0.321539 0.451888
vt 0.460618 0.493234
vt 0.578006 0.906639
vt 0.564586 0.941190
vt 0.547759 0.926180
vt 0.547759 0.894891
vt 0.351353 0.819411
vt 0.351353 0.788122
vt 0.428500 0.788122
vt 0.428500 0.819411
vt 0.505626 0.906639
vt 0.519046 0.872088
vt 0.535873 0.887098
vt 0.535873 0.918387
vt 0.428500 0.927087
vt 0.428500 0.958376
vt 0.351353 0.958376
vt 0.351353 0.927087
vt 0.351353 0.873249
vt 0.428500 0.873249
vt 0.428500 0.895797
vt 0.351353 0.895797
vt 0.428500 0.980925
vt 0.351353 0.980925
vt 0.726976 0.285464
vt 0.800295 0.286520
vt 0.651023 0.624605
vt 0.475380 0.775568
vt 0.480223 0.753643
vt 0.609496 0.643080
vt 0.339466 0.787513
vt 0.266140 0.787513
vt 0.270930 0.765574
vt 0.334686 0.765574
vt 0.806204 0.841446
vt 0.676932 0.730883
vt 0.492206 0.941190
vt 0.514753 0.941473
vt 0.351353 0.850701
vt 0.428500 0.850701
vt 0.591426 0.872088
vt 0.568879 0.871805
vt 0.608253 0.887098
vt 0.608253 0.918387
vt 0.475380 0.926180
vt 0.475380 0.894891
vt 0.351353 0.765574
vt 0.428500 0.765574
vt 0.496499 0.871805
vt 0.587133 0.941473
vt 0.463493 0.189866
vt 0.447188 0.144405
vt 0.856915 0.624605
vt 0.688585 0.687972
vt 0.461114 0.440002
vt 0.797404 0.005943
vt 0.717133 0.005943
vt 0.476932 0.567768
vt 0.477066 0.612718
vt 0.228775 0.189805
vt 0.214573 0.005943
vt 0.475379 0.316168
vt 0.577607 0.315277
vt 0.691611 0.303391
vt 0.590960 0.303145
vt 0.590980 0.258075
vt 0.691720 0.258354
vt 0.665162 0.952076
vt 0.620139 0.952076
vt 0.620139 0.871805
vt 0.665162 0.871805
vt 0.949073 0.624605
vt 0.868802 0.624605
vt 0.476928 0.303391
vt 0.476809 0.258439
vt 0.693054 0.316107
vt 0.226668 0.440002
vt 0.110854 0.439026
vt 0.824629 0.285464
vt 0.904901 0.285464
vt 0.008322 0.440002
vt 0.590820 0.005943
vt 0.693054 0.006745
vt 0.901755 0.005943
vt 0.901755 0.257650
vt 0.821483 0.257650
vt 0.821483 0.005943
vt 0.475380 0.006874
vn -0.1074 -0.3552 -0.9286
vn 0.0000 0.1069 -0.9943
vn 1.0000 0.0000 0.0000
vn 0.0201 0.2378 0.9711
vn 0.0000 -1.0000 0.0000
vn 0.0000 1.0000 0.0000
vn -0.0178 -0.3039 -0.9525
vn -0.0433 0.2739 0.9608
vn -0.0797 0.9968 0.0000
vn -0.3781 -0.9258 0.0000
vn -0.9999 -0.0129 0.0000
vn -0.2154 0.1170 0.9695
vn -0.8558 0.5173 0.0000
vn -0.0000 0.0050 -1.0000
vn 0.0067 -0.0126 0.9999
vn -0.8999 0.4362 0.0000
vn -0.0000 0.0050 1.0000
vn 0.8975 -0.4410 0.0000
vn -0.6188 -0.7854 0.0132
vn -0.9830 -0.1835 0.0032
vn -0.0067 0.0120 -0.9999
vn 0.9016 -0.4326 0.0010
vn 0.0490 -0.9987 0.0126
vn -0.1265 -0.0236 -0.9917
vn 0.9323 -0.3617 0.0017
vn -0.1053 0.0198 0.9942
vn -0.1043 0.3966 0.9120
vn 0.6657 0.7461 -0.0121
vn -0.1180 0.3362 -0.9344
vn -0.7488 -0.6627 0.0120
vn -1.0000 0.0000 0.0000
vn 0.0000 0.3621 -0.9322
vn 0.0000 0.3621 0.9322
vn 0.0000 -0.9366 0.3503
vn 0.0000 0.9366 0.3503
vn 0.2688 -0.9632 0.0000
vn 0.0004 -0.3608 0.9326
vn -0.5740 -0.8188 0.0000
vn 0.0004 -0.3614 -0.9324
vn 0.0000 -0.3621 0.9322
vn 0.0000 -0.3621 -0.9322
vn 0.0000 0.9366 -0.3503
vn 0.0000 -0.9366 -0.3503
vn -0.0178 -0.3039 0.9525
vn -0.1074 -0.3552 0.9286
vn -0.2154 0.1170 -0.9695
vn 0.0199 -0.2679 0.9632
vn 0.0000 -0.1212 -0.9926
vn -0.0433 0.2739 -0.9608
vn 0.0204 -0.1716 -0.9850
vn 0.0000 -0.1212 0.9926
vn 0.0000 0.1069 0.9943
vn 0.0204 0.1516 -0.9882
vn 0.0201 0.2378 -0.9711
vn 0.0199 -0.2679 -0.9632
vn 0.0204 -0.1716 0.9850
vn 0.0204 0.1516 0.9882
usemtl test_material
s off
f 56/1/1 3/2/1 9/3/1 60/4/1
f 68/5/2 64/6/2 8/7/2 57/8/2
f 57/9/3 8/10/3 6/11/3 58/12/3
f 71/13/4 70/14/4 2/15/4 55/16/4
f 63/17/5 7/18/5 5/19/5 65/20/5
f 72/21/6 4/22/6 2/23/6 70/24/6
f 60/25/7 9/26/7 13/27/7 62/28/7
f 55/16/8 2/15/8 11/29/8 59/30/8
f 2/31/9 4/32/9 12/33/9 11/34/9
f 3/35/10 1/36/10 10/37/10 9/38/10
f 61/39/11 15/40/11 16/41/11 62/42/11
f 59/43/12 11/44/12 15/45/12 61/46/12
f 11/47/13 12/48/13 16/41/13 15/40/13
f 42/49/14 41/50/14 17/51/14 19/52/14
f 18/53/15 20/54/15 24/55/15 22/56/15
f 43/57/16 42/58/16 19/59/16 20/60/16
f 44/61/17 43/62/17 20/54/17 18/53/17
f 41/63/18 44/64/18 18/65/18 17/66/18
f 30/67/19 29/68/19 27/69/19 28/70/19
f 20/60/20 19/59/20 23/71/20 24/72/20
f 19/52/21 17/51/21 21/73/21 23/74/21
f 17/66/22 18/65/22 22/75/22 21/76/22
f 25/77/23 26/78/23 28/79/23 27/80/23
f 29/81/24 31/82/24 25/83/24 27/84/24
f 31/85/25 32/86/25 26/87/25 25/88/25
f 32/89/26 30/90/26 28/91/26 26/92/26
f 22/56/27 24/55/27 30/90/27 32/89/27
f 21/76/28 22/75/28 32/86/28 31/85/28
f 23/74/29 21/73/29 31/82/29 29/81/29
f 24/72/30 23/71/30 29/68/30 30/67/30
f 54/93/31 50/94/31 36/95/31 46/96/31
f 46/97/32 36/98/32 40/99/32 47/100/32
f 53/101/3 52/102/3 38/103/3 48/104/3
f 48/105/33 38/106/33 34/107/33 45/108/33
f 49/109/34 51/110/34 37/111/34 33/112/34
f 52/113/35 50/114/35 34/107/35 38/106/35
f 9/115/36 10/116/36 44/64/36 41/63/36
f 10/117/37 14/118/37 43/119/37 44/120/37
f 14/121/38 13/122/38 42/123/38 43/124/38
f 13/27/39 9/26/39 41/125/39 42/126/39
f 37/111/40 48/105/40 45/108/40 33/112/40
f 51/127/3 53/101/3 48/104/3 37/128/3
f 35/129/41 46/97/41 47/100/41 39/130/41
f 49/131/31 54/93/31 46/96/31 35/132/31
f 33/133/31 45/134/31 54/93/31 49/131/31
f 39/135/3 47/136/3 53/101/3 51/127/3
f 40/99/42 36/98/42 50/137/42 52/138/42
f 35/129/43 39/130/43 51/110/43 49/109/43
f 47/136/3 40/139/3 52/102/3 53/101/3
f 45/134/31 34/140/31 50/94/31 54/93/31
f 10/117/44 59/43/44 61/46/44 14/118/44
f 14/121/11 61/39/11 62/42/11 13/122/11
f 1/141/45 55/16/45 59/30/45 10/142/45
f 12/143/46 60/25/46 62/28/46 16/144/46
f 73/145/47 71/13/47 55/16/47 1/141/47
f 7/146/3 57/9/3 58/12/3 5/147/3
f 63/148/48 68/5/48 57/8/48 7/149/48
f 4/150/49 56/1/49 60/4/49 12/151/49
f 69/152/50 74/153/50 68/5/50 63/148/50
f 5/154/51 58/155/51 67/156/51 65/157/51
f 8/158/6 64/159/6 66/160/6 6/161/6
f 69/162/5 63/17/5 65/20/5 73/163/5
f 58/155/52 6/164/52 66/165/52 67/156/52
f 74/153/53 72/166/53 64/6/53 68/5/53
f 56/1/54 4/150/54 72/167/54 74/168/54
f 3/35/5 69/169/5 73/170/5 1/36/5
f 3/2/55 56/1/55 74/168/55 69/171/55
f 65/157/56 67/156/56 71/172/56 73/173/56
f 64/174/6 72/175/6 70/176/6 66/177/6
f 67/156/57 66/165/57 70/178/57 71/172/57
