# Blender v2.93.4 OBJ File: 'van.blend'
# www.blender.org
mtllib van.mtl
o Cube_Cube.001
v -21.615105 -4.454064 14.212992
v -21.615105 39.999935 14.212992
v -21.615105 -4.454064 -40.592361
v -21.615105 39.999935 -40.592354
v 22.697601 -4.454064 14.212992
v 22.697601 39.999935 14.212992
v 22.697601 -4.454064 -40.592361
v 22.697601 39.999935 -40.592354
v -14.106390 -4.984093 49.528618
v -11.764874 18.626154 49.528618
v 12.847370 18.626154 49.528618
v 15.188887 -4.984093 49.528618
v -11.865325 -4.984093 57.957691
v -6.409744 10.695415 57.957691
v 7.492243 10.695415 57.957691
v 12.947824 -4.984093 57.957691
v 35.157246 -4.454064 -72.635323
v 35.157246 39.999935 -72.635315
v -47.525154 -4.454064 -67.228645
v -47.525154 39.999935 -67.228645
v -18.753279 -10.185084 -40.058929
v -13.747589 -10.185084 -40.058929
v -18.753279 -15.106074 -37.689110
v -13.747589 -15.106074 -37.689110
v -18.753279 -16.321457 -32.364166
v -13.747589 -16.321457 -32.364166
v -18.753279 -12.916024 -28.093895
v -13.747589 -12.916024 -28.093895
v -18.753279 -7.454146 -28.093899
v -13.747589 -7.454146 -28.093899
v -18.753279 -4.048715 -32.364166
v -13.747587 -4.048715 -32.364166
v -18.753279 -5.264098 -37.689110
v -13.747589 -5.264098 -37.689110
v -18.094330 -1.051543 14.647381
v -18.162600 36.473701 14.407759
v -20.210438 -3.597156 -41.407372
v -20.210438 39.143024 -41.407372
v 19.176826 -1.051543 14.647381
v 19.245096 36.473701 14.407759
v 21.159863 -3.645246 -41.025890
v 21.159863 39.191113 -41.025887
v -10.740382 -3.272861 48.496231
v -10.885788 18.022028 47.777893
v 11.968285 18.022028 47.777893
v 11.822879 -3.272861 48.496231
v -2.125970 -3.323331 57.389328
v -2.089781 2.773540 56.903610
v 3.172278 2.773540 56.903610
v 3.208467 -3.323331 57.389328
v 33.559895 -4.454064 -73.585419
v 33.559895 39.999935 -73.585411
v -46.392151 -4.454064 -68.914467
v -46.392151 39.999935 -68.914467
v 20.230377 -5.264098 -37.689110
v 15.224688 -5.264098 -37.689110
v 20.230379 -4.048715 -32.364166
v 15.224688 -4.048715 -32.364166
v 20.230377 -7.454146 -28.093899
v 15.224688 -7.454146 -28.093899
v 20.230377 -12.916024 -28.093895
v 15.224688 -12.916024 -28.093895
v 20.230377 -16.321457 -32.364166
v 15.224688 -16.321457 -32.364166
v 20.230377 -15.106074 -37.689110
v 15.224688 -15.106074 -37.689110
v 20.230377 -10.185084 -40.058929
v 15.224688 -10.185084 -40.058929
v -19.076759 -4.306085 22.998112
v -14.071069 -4.306085 22.998112
v -19.076759 -9.128428 20.433517
v -14.071069 -9.128428 20.433517
v -19.076759 -14.140199 22.604774
v -14.071069 -14.140199 22.604774
v -19.076759 -15.567418 27.876900
v -14.071069 -15.567418 27.876900
v -19.076759 -12.335368 32.279846
v -14.071069 -12.335368 32.279846
v -19.076759 -6.877852 32.498135
v -14.071067 -6.877852 32.498135
v -19.076759 -3.304481 28.367367
v -14.071069 -3.304481 28.367367
v 19.826906 -3.304481 28.367367
v 14.821217 -3.304481 28.367367
v 19.826908 -6.877852 32.498135
v 14.821217 -6.877852 32.498135
v 19.826906 -12.335368 32.279846
v 14.821217 -12.335368 32.279846
v 19.826906 -15.567418 27.876900
v 14.821217 -15.567418 27.876900
v 19.826906 -14.140199 22.604774
v 14.821217 -14.140199 22.604774
v 19.826906 -9.128428 20.433517
v 14.821217 -9.128428 20.433517
v 19.826906 -4.306085 22.998112
v 14.821217 -4.306085 22.998112
v -20.845432 38.741135 29.756084
v 21.927929 38.741135 29.756084
v 23.164665 -4.957931 29.756084
v -22.082169 -4.957931 29.756084
vt 0.919857 0.221117
vt 0.896150 0.231420
vt 0.883856 0.223781
vt 0.890484 0.198649
vt 0.869834 0.228420
vt 0.854620 0.207387
vt 0.864518 0.241898
vt 0.838744 0.240604
vt 0.871711 0.253930
vt 0.855163 0.273518
vt 0.886265 0.254628
vt 0.891243 0.279975
vt 0.887386 0.772786
vt 0.896967 0.752891
vt 0.918496 0.747977
vt 0.935760 0.761745
vt 0.935760 0.783827
vt 0.918496 0.797595
vt 0.896967 0.792681
vt 0.897559 0.245364
vt 0.919857 0.257984
vt 0.176661 0.889653
vt 0.176661 0.911735
vt 0.159397 0.925503
vt 0.137868 0.920590
vt 0.128287 0.900694
vt 0.137868 0.880799
vt 0.159397 0.875885
vt 0.115672 0.889653
vt 0.115672 0.911735
vt 0.098407 0.925503
vt 0.076878 0.920590
vt 0.067297 0.900694
vt 0.076879 0.880799
vt 0.098407 0.875885
vt 0.553384 0.248095
vt 0.556583 0.273683
vt 0.521294 0.264093
vt 0.538917 0.245033
vt 0.564035 0.239070
vt 0.586255 0.251989
vt 0.918496 0.922062
vt 0.896967 0.917149
vt 0.887386 0.897253
vt 0.896967 0.877358
vt 0.918496 0.872444
vt 0.935760 0.886212
vt 0.935760 0.908294
vt 0.562342 0.224984
vt 0.586255 0.215086
vt 0.550041 0.216277
vt 0.558107 0.191720
vt 0.536172 0.219382
vt 0.522134 0.197862
vt 0.531221 0.232428
vt 0.505433 0.230835
vt 0.598871 0.231198
vt 0.624681 0.232695
vt 0.632258 0.245082
vt 0.614994 0.264451
vt 0.647012 0.247312
vt 0.650778 0.272922
vt 0.657944 0.238298
vt 0.680162 0.251181
vt 0.656456 0.224403
vt 0.680162 0.214282
vt 0.643786 0.216509
vt 0.651240 0.191720
vt 0.918496 0.859829
vt 0.896967 0.854915
vt 0.887386 0.835020
vt 0.896967 0.815124
vt 0.918496 0.810211
vt 0.935760 0.823979
vt 0.935760 0.846061
vt 0.629680 0.219645
vt 0.615524 0.198218
vt 0.632771 0.913912
vt 0.615506 0.927680
vt 0.593978 0.922766
vt 0.584397 0.902871
vt 0.593978 0.882976
vt 0.615506 0.878062
vt 0.632771 0.891830
vt 0.015889 0.880799
vt 0.037417 0.875885
vt 0.054682 0.889653
vt 0.054682 0.911736
vt 0.037417 0.925503
vt 0.015889 0.920590
vt 0.006308 0.900694
vt 0.761490 0.205147
vt 0.775646 0.226574
vt 0.770648 0.239624
vt 0.744837 0.238127
vt 0.797207 0.198649
vt 0.789752 0.223438
vt 0.873086 0.661143
vt 0.890350 0.674911
vt 0.890350 0.696993
vt 0.873086 0.710761
vt 0.851557 0.705848
vt 0.841976 0.685952
vt 0.851557 0.666057
vt 0.826128 0.221210
vt 0.802423 0.231332
vt 0.826128 0.258110
vt 0.803910 0.245227
vt 0.796744 0.279850
vt 0.792978 0.254241
vt 0.760960 0.271380
vt 0.778224 0.252010
vt 0.377798 0.723393
vt 0.198078 0.722061
vt 0.199720 0.500492
vt 0.379440 0.501824
vt 0.829361 0.734030
vt 0.649640 0.735361
vt 0.647998 0.513792
vt 0.827719 0.512460
vt 0.182350 0.193966
vt 0.009420 0.193966
vt 0.046132 0.079931
vt 0.145638 0.079931
vt 0.630560 0.305008
vt 0.631712 0.484158
vt 0.410141 0.485584
vt 0.408989 0.306433
vt 0.185462 0.478588
vt 0.006308 0.478588
vt 0.006308 0.257012
vt 0.185462 0.257012
vt 0.083224 0.006308
vt 0.108546 0.006308
vt 0.829361 0.449580
vt 0.652621 0.450839
vt 0.732238 0.361325
vt 0.826006 0.363423
vt 0.202701 0.785015
vt 0.379440 0.786273
vt 0.376086 0.872430
vt 0.282318 0.874529
vt 0.346105 0.304949
vt 0.347282 0.487876
vt 0.267110 0.456145
vt 0.266349 0.337708
vt 0.228677 0.419770
vt 0.198241 0.410029
vt 0.198078 0.384707
vt 0.228387 0.374575
vt 0.792388 0.304949
vt 0.823851 0.310549
vt 0.373931 0.925304
vt 0.342468 0.930904
vt 0.841976 0.484674
vt 0.841976 0.304949
vt 0.980974 0.304949
vt 0.980974 0.484674
vt 0.006308 0.683544
vt 0.156542 0.683544
vt 0.156542 0.863270
vt 0.006308 0.863270
vt 0.505433 0.016599
vt 0.732221 0.006308
vt 0.732221 0.179104
vt 0.506411 0.168313
vt 0.617283 0.865447
vt 0.392056 0.854960
vt 0.393034 0.703247
vt 0.617283 0.692261
vt 0.206343 0.008698
vt 0.342761 0.122901
vt 0.352520 0.171696
vt 0.198078 0.275857
vt 0.874771 0.915243
vt 0.647998 0.904610
vt 0.649378 0.753930
vt 0.874771 0.747977
vt 0.618891 0.673429
vt 0.394413 0.669186
vt 0.392056 0.517966
vt 0.617816 0.506167
vt 0.368985 0.143067
vt 0.371618 0.149835
vt 0.492817 0.006308
vt 0.380544 0.131105
vt 0.388133 0.158479
vt 0.492817 0.292333
vt 0.375884 0.142315
vt 0.377607 0.146655
vt 0.885697 0.182763
vt 0.744837 0.186033
vt 0.744837 0.006308
vt 0.885697 0.009578
vt 0.006308 0.667464
vt 0.006308 0.494667
vt 0.159840 0.491203
vt 0.159840 0.670929
vt 0.841976 0.497566
vt 0.993692 0.497290
vt 0.993692 0.648528
vt 0.841976 0.648252
vt 0.635382 0.310652
vt 0.635382 0.477918
vt 0.622601 0.500492
vt 0.622601 0.679645
vt 0.172456 0.670928
vt 0.172456 0.491203
vt 0.179970 0.491203
vt 0.179970 0.670928
vt 0.919134 0.146598
vt 0.918945 0.007599
vt 0.926348 0.006308
vt 0.926348 0.147207
vt 0.938963 0.145918
vt 0.939151 0.006917
vt 0.946365 0.006308
vt 0.946365 0.147209
vt 0.392056 0.878062
vt 0.571781 0.878062
vt 0.571781 0.886274
vt 0.392056 0.886274
vt 0.169157 0.835337
vt 0.169917 0.685105
vt 0.177174 0.683544
vt 0.177174 0.837116
vt 0.899072 0.158318
vt 0.898313 0.008086
vt 0.906330 0.006308
vt 0.906330 0.159880
vn 0.0000 -0.4339 -0.9010
vn 0.0000 -0.9749 -0.2225
vn 0.0000 -0.7818 0.6235
vn 0.0000 0.0000 1.0000
vn 0.0000 0.7818 0.6235
vn 1.0000 -0.0000 -0.0000
vn 0.0000 0.9749 -0.2225
vn 0.0000 0.4339 -0.9010
vn -1.0000 -0.0000 0.0000
vn 0.0000 0.4695 -0.8829
vn 0.0000 -0.3975 -0.9176
vn 0.0000 -0.9653 -0.2613
vn 0.0000 -0.8061 0.5917
vn 0.0000 -0.0400 0.9992
vn 0.0000 0.7563 0.6542
vn 0.0000 0.9830 -0.1834
vn 0.0000 0.7010 0.7132
vn 0.0000 -1.0000 0.0000
vn 0.0000 1.0000 0.0000
vn 0.0000 0.7283 0.6852
vn 0.9080 0.0483 0.4162
vn -0.9080 0.0483 0.4162
vn 0.0000 -1.0000 -0.0013
vn 0.8654 0.1717 0.4707
vn -0.8654 0.1717 0.4707
vn 0.9320 -0.0000 0.3624
vn -0.7168 -0.0000 0.6973
vn 0.9993 0.0007 -0.0372
vn -0.9994 0.0007 -0.0351
vn 0.0000 -0.8751 -0.4839
vn 0.0008 0.9989 -0.0460
vn 0.0008 -0.9988 -0.0484
vn 0.0000 -0.5135 -0.8581
vn -0.9771 0.0001 -0.2127
vn 0.9771 0.0001 -0.2127
vn 0.0000 0.9979 0.0655
vn 0.0000 -0.0794 -0.9968
vn -0.7068 -0.0283 -0.7069
vn 0.0000 1.0000 0.0057
vn 0.7068 -0.0283 -0.7069
vn -0.9345 0.0000 -0.3559
vn 0.7243 0.0000 -0.6894
vn 0.0000 0.0064 1.0000
vn 0.0032 -0.5996 -0.8003
vn 0.0032 0.5996 -0.8003
vn 0.5112 0.0000 -0.8595
vn -0.2192 0.9730 -0.0722
vn -0.2192 -0.9730 -0.0722
vn -0.8300 0.0000 -0.5578
vn 0.1763 0.9722 -0.1542
vn 0.1763 -0.9722 -0.1542
vn 0.0000 -0.9995 -0.0324
vn -0.9998 0.0140 0.0105
vn 0.9998 0.0140 0.0105
vn 0.0000 0.9967 0.0807
usemtl van_wheels
s off
f 21/1/1 22/2/1 24/3/1 23/4/1
f 23/4/2 24/3/2 26/5/2 25/6/2
f 25/6/3 26/5/3 28/7/3 27/8/3
f 27/8/4 28/7/4 30/9/4 29/10/4
f 29/10/5 30/9/5 32/11/5 31/12/5
f 24/13/6 22/14/6 34/15/6 32/16/6 30/17/6 28/18/6 26/19/6
f 31/12/7 32/11/7 34/20/7 33/21/7
f 33/21/8 34/20/8 22/2/8 21/1/8
f 21/22/9 23/23/9 25/24/9 27/25/9 29/26/9 31/27/9 33/28/9
f 68/29/9 66/30/9 64/31/9 62/32/9 60/33/9 58/34/9 56/35/9
f 56/36/8 55/37/8 67/38/8 68/39/8
f 58/40/7 57/41/7 55/37/7 56/36/7
f 65/42/6 67/43/6 55/44/6 57/45/6 59/46/6 61/47/6 63/48/6
f 60/49/5 59/50/5 57/41/5 58/40/5
f 62/51/4 61/52/4 59/50/4 60/49/4
f 64/53/3 63/54/3 61/52/3 62/51/3
f 66/55/2 65/56/2 63/54/2 64/53/2
f 68/39/1 67/38/1 65/56/1 66/55/1
f 69/57/10 70/58/10 72/59/10 71/60/10
f 71/60/11 72/59/11 74/61/11 73/62/11
f 73/62/12 74/61/12 76/63/12 75/64/12
f 75/64/13 76/63/13 78/65/13 77/66/13
f 77/66/14 78/65/14 80/67/14 79/68/14
f 72/69/6 70/70/6 82/71/6 80/72/6 78/73/6 76/74/6 74/75/6
f 79/68/15 80/67/15 82/76/15 81/77/15
f 81/77/16 82/76/16 70/58/16 69/57/16
f 69/78/9 71/79/9 73/80/9 75/81/9 77/82/9 79/83/9 81/84/9
f 96/85/9 94/86/9 92/87/9 90/88/9 88/89/9 86/90/9 84/91/9
f 84/92/16 83/93/16 95/94/16 96/95/16
f 86/96/15 85/97/15 83/93/15 84/92/15
f 93/98/6 95/99/6 83/100/6 85/101/6 87/102/6 89/103/6 91/104/6
f 88/105/14 87/106/14 85/97/14 86/96/14
f 90/107/13 89/108/13 87/106/13 88/105/13
f 92/109/12 91/110/12 89/108/12 90/107/12
f 94/111/11 93/112/11 91/110/11 92/109/11
f 96/95/10 95/94/10 93/112/10 94/111/10
usemtl van_body
f 1/113/9 2/114/9 4/115/9 3/116/9
f 7/117/6 8/118/6 6/119/6 5/120/6
f 98/121/17 97/122/17 10/123/17 11/124/17
f 3/125/18 7/126/18 5/127/18 1/128/18
f 8/129/19 4/130/19 2/131/19 6/132/19
f 11/124/20 10/123/20 14/133/20 15/134/20
f 99/135/21 98/136/21 11/137/21 12/138/21
f 97/139/22 100/140/22 9/141/22 10/142/22
f 100/143/23 99/144/23 12/145/23 9/146/23
f 16/147/4 15/148/4 14/149/4 13/150/4
f 12/138/24 11/137/24 15/151/24 16/152/24
f 9/146/18 12/145/18 16/147/18 13/150/18
f 10/142/25 9/141/25 13/153/25 14/154/25
f 8/155/26 7/156/26 17/157/26 18/158/26
f 4/159/27 20/160/27 19/161/27 3/162/27
f 35/163/28 37/164/28 38/165/28 36/166/28
f 41/167/29 39/168/29 40/169/29 42/170/29
f 40/171/30 45/172/30 44/173/30 36/174/30
f 37/175/31 35/176/31 39/177/31 41/178/31
f 42/179/32 40/180/32 36/181/32 38/182/32
f 45/172/33 49/183/33 48/184/33 44/173/33
f 39/185/34 46/186/34 45/172/34 40/171/34
f 36/174/35 44/173/35 43/187/35 35/188/35
f 35/188/36 43/187/36 46/186/36 39/185/36
f 50/189/37 47/190/37 48/184/37 49/183/37
f 46/186/38 50/189/38 49/183/38 45/172/38
f 43/187/39 47/190/39 50/189/39 46/186/39
f 44/173/40 48/184/40 47/190/40 43/187/40
f 42/191/41 52/192/41 51/193/41 41/194/41
f 38/195/42 37/196/42 53/197/42 54/198/42
f 39/199/43 40/200/43 36/201/43 35/202/43
f 7/126/44 3/125/44 37/203/44 41/204/44
f 4/205/45 8/206/45 42/179/45 38/182/45
f 18/207/46 17/208/46 51/209/46 52/210/46
f 8/211/47 18/212/47 52/213/47 42/214/47
f 17/215/48 7/216/48 41/217/48 51/218/48
f 19/219/49 20/220/49 54/221/49 53/222/49
f 20/223/50 4/224/50 38/225/50 54/226/50
f 3/227/51 19/228/51 53/229/51 37/230/51
f 1/128/52 5/127/52 99/144/52 100/143/52
f 2/114/53 1/113/53 100/140/53 97/139/53
f 5/120/54 6/119/54 98/136/54 99/135/54
f 6/132/55 2/131/55 97/122/55 98/121/55
